<?xml version="1.0" encoding="UTF-8"?>
<svg id="Layer_1" xmlns="http://www.w3.org/2000/svg" viewBox="0 0 142.95 142.95">
  <defs>
    <style>
      .cls-1 {
        fill: #ededec;
      }

      .cls-2 {
        fill: #5187c6;
      }
    </style>
  </defs>
  <path class="cls-2" d="M132.31,72.95c0,7.17.12,14.34-.02,21.51-.42,21.56-14.99,37.43-36.47,38.45-16.22.77-32.54.72-48.76-.01-20.51-.92-34.84-15.18-36.16-35.6-1.14-17.64-1.01-35.34.27-52.99,1.17-16.04,15.83-31.59,32.8-33.11,17.92-1.61,35.87-1.32,53.75-.17,19.62,1.27,33.9,17.65,34.53,38.28.24,7.88.04,15.77.04,23.66.01,0,.02,0,.03,0ZM106.96,105.3c-2.58-3.75-8.25-6.03-3.39-12.87,10.15-14.29,10.1-29.93.31-44.25-9.64-14.1-24.32-19.58-40.87-16.23-26.66,5.4-37.23,27.61-30.44,50.92,5.91,20.27,24.52,31.22,48.56,25.73,4.94-1.13,8.77-1.36,12.18,2.75,2.01,2.42,4.33,2.7,6.82.51,2.31-2.03,5.26-3.37,6.84-6.56Z"/>
  <path class="cls-1" d="M106.96,105.3c-1.57,3.19-4.53,4.53-6.84,6.56-2.49,2.19-4.81,1.92-6.82-.51-3.41-4.11-7.24-3.88-12.18-2.75-24.04,5.49-42.65-5.46-48.56-25.73-6.79-23.31,3.77-45.52,30.44-50.92,16.55-3.35,31.23,2.13,40.87,16.23,9.79,14.33,9.84,29.96-.31,44.25-4.86,6.84.81,9.12,3.39,12.87ZM74.85,93.87c.3-2.05-1.49-2.79-2.55-3.96-5.37-5.95-4.88-8.86,2.08-12.37,5.03-2.53,6.6,2.29,9.23,4.46,2.88,2.38,5.01,4.47,7.8-.18,6.36-10.61,1.82-26.6-9.57-32.87-11.75-6.46-26.6-1.59-32.25,10.27-2.51,5.27-2.05,10.23-1.17,15.83,2.13,13.7,12.85,21.78,26.43,18.81Z"/>
  <path class="cls-2" d="M74.85,93.87c-13.58,2.97-24.3-5.11-26.43-18.81-.87-5.61-1.33-10.56,1.17-15.83,5.65-11.87,20.5-16.73,32.25-10.27,11.39,6.26,15.93,22.25,9.57,32.87-2.79,4.65-4.91,2.56-7.8.18-2.63-2.17-4.2-6.99-9.23-4.46-6.96,3.51-7.46,6.41-2.08,12.37,1.06,1.17,2.85,1.91,2.55,3.96Z"/>
</svg>