<?xml version="1.0" encoding="UTF-8"?>
<svg id="Layer_1" xmlns="http://www.w3.org/2000/svg" viewBox="0 0 423.75 85.94">
  <defs>
    <style>
      .cls-1 {
        fill: #5187c6;
      }

      .cls-2 {
        fill: #706872;
      }

      .cls-3 {
        fill: #ededec;
      }
    </style>
  </defs>
  <path class="cls-1" d="M85.12,43.79c0,4.99.08,9.99-.02,14.98-.29,15.02-10.44,26.07-25.4,26.78-11.3.53-22.66.5-33.97,0-14.29-.64-24.27-10.57-25.19-24.8-.79-12.29-.71-24.62.19-36.91C1.54,12.67,11.76,1.84,23.57.78c12.48-1.12,24.99-.92,37.44-.12,13.66.88,23.61,12.29,24.05,26.66.17,5.49.03,10.98.03,16.48h.03ZM67.46,66.33c-1.8-2.61-5.74-4.2-2.36-8.96,7.07-9.96,7.04-20.84.21-30.83-6.71-9.82-16.94-13.64-28.47-11.3-18.57,3.76-25.93,19.23-21.2,35.47,4.11,14.12,17.08,21.75,33.82,17.92,3.44-.79,6.11-.95,8.48,1.91,1.4,1.69,3.02,1.88,4.75.35,1.61-1.41,3.66-2.35,4.76-4.57h0Z"/>
  <path class="cls-2" d="M131.89,15.6c10.44.5,19.54,4.56,24.44,14.61,5.01,10.28,4.52,20.83-2.63,30.08-2.84,3.68-2.65,5.77.79,8.27,1.69,1.23,4.3,2.63,1.39,4.84-2.31,1.75-3.92,7.25-8.14,2.94-4.75-4.84-9.89-6.21-16.74-5.51-9.94,1.01-18.4-3.77-23.68-11.87-5.95-9.12-5.83-19.43-.54-29.07,5.25-9.55,13.95-13.8,25.11-14.29ZM130.57,60.3c9.64.11,17.13-7.24,17.22-16.89.09-9.54-6.67-16.74-15.89-16.93-9.15-.18-16.77,7.31-16.93,16.65-.17,9.58,6.63,17.07,15.6,17.17Z"/>
  <path class="cls-2" d="M396.78,34.16c1.97-1.14,3.2-1.93,4.5-2.59,9.24-4.71,19.84.02,21.64,10.06,1.56,8.71.4,17.58.64,26.38.05,1.76-.96,2.31-2.51,2.31-1.66,0-3.34-.14-4.99.04-3.18.35-3.97-1.14-3.91-4.07.13-6.15.14-12.3-.12-18.45-.24-5.83-2.5-8.12-7.28-8.1-4.78.02-7.64,2.88-7.84,8.4-.23,6.14-.23,12.3-.08,18.45.07,2.83-.89,3.69-3.7,3.74-7.99.13-7.98.25-7.96-7.53.02-6.82.02-13.63.06-20.45.04-7.31.37-14.64.09-21.94-.15-3.92,1.21-5.11,4.81-4.47.48.09,1.01.08,1.49,0,3.99-.66,5.69.63,5.23,5-.43,4.1-.09,8.29-.09,13.22h.02Z"/>
  <path class="cls-2" d="M273.1,54.4c1.31,6.44,9.37,9.93,15.07,5.67,4.23-3.16,6.53-.55,9.55.98,1.63.83,1.58,1.95.47,3.2-.55.62-1.13,1.22-1.71,1.81-6.4,6.56-25.65,8.08-32.66-3.32-3.95-6.41-3.83-18.54,1.1-24.87,5.66-7.26,16.16-10.07,24.78-6.63,7.95,3.17,12.65,11.1,12.17,19.91-.15,2.69-1.46,2.87-3.5,2.85-6.82-.06-13.64-.06-20.46-.03-1.61,0-3.28-.47-4.81.43h0ZM272.89,46.8c4.89,0,9.49.03,14.09-.02,1.07-.01,2.53.47,2.95-1.07.32-1.17-.25-2.28-1.02-3.21-2.47-3.01-5.67-3.94-9.38-3.09-3.69.84-6.15,2.9-6.64,7.39Z"/>
  <path class="cls-2" d="M190.71,66.75c-5.77,4.99-11.87,5.46-18.09,2.69-6.05-2.69-7.92-8.2-8.09-14.36-.19-6.98-.18-13.96-.25-20.94-.06-6.23,4.73-2.83,7.33-3.54,2.95-.8,4.04.75,3.92,3.84-.23,5.81-.19,11.64-.04,17.45.16,6.06,2.77,8.88,7.79,8.88,4.74,0,7.7-3.17,7.89-9,.19-5.64.29-11.32-.1-16.95-.33-4.84,2.58-4.48,5.68-4.35,2.82.12,5.95-.99,5.78,4.13-.33,9.96.1,19.94,0,29.91-.02,1.98,1.5,5.45-2.08,5.54-3.3.08-7.79,2.35-9.74-3.32v.02Z"/>
  <path class="cls-2" d="M365.96,29.87c4.05,0,9.73,3.13,13.76,9.34,1.26,1.95,1.39,3.27-1.3,3.96-3.63.92-6.83,3.48-10.35-1.33-2.82-3.85-9.21-2.96-12.47.54-4.09,4.38-3.95,12.36.27,16.3,3.53,3.29,9.48,3.59,12.48-.44,3.67-4.91,7.34-2.13,10.97-1.06,3.06.9,1.02,2.97.24,4.35-6.53,11.45-24.16,13.05-33.06,2.93-6.05-6.89-6.9-14.97-3.28-23.04,3.6-8.03,10.59-11.57,22.74-11.55Z"/>
  <path class="cls-2" d="M322.17,29.86c4.11-.15,7.97.88,11.42,3,1.42.87,4.9,1.77,2.79,4.01-1.83,1.94-2.59,7.62-7.74,4.1-2.06-1.41-4.48-2.2-7.05-2.21-2.24-.01-4.66.04-5.1,2.81-.42,2.63,1.87,3.17,3.82,3.71,3.52.97,7.15,1.64,10.55,2.93,8.45,3.2,9.95,13.57,2.93,19.22-6.8,5.47-21.36,4.58-27.48-1.6-1.36-1.38-1.65-2.73.04-3.61,2.27-1.19,2.96-6.3,6.95-3.27,3.11,2.37,6.41,3.41,10.22,2.96,1.77-.21,3.32-.92,3.48-2.93.16-2.02-1.25-2.91-3.01-3.36-3.06-.78-6.15-1.44-9.16-2.38-6.43-2.02-9.3-5.45-9.3-10.78s3.6-9.82,9.75-11.72c2.27-.7,4.57-.83,6.89-.88h0Z"/>
  <path class="cls-2" d="M239.96,60.91c5.47,0,9.98.32,14.43-.09,4.35-.4,3.93,2.22,3.97,4.94.04,2.65.21,4.81-3.76,4.62-7.47-.35-14.98-.02-22.46-.24-2.1-.06-5.34,1.45-6.12-1.5-.76-2.88-1.16-6.29,1.19-9.03,4.23-4.91,8.47-9.82,12.69-14.74,1.07-1.24,2.08-2.53,3.48-4.24-4.86-1.27-9.29-.74-13.62-.59-3.69.13-4.01-1.63-3.95-4.54.07-2.84-.17-5.18,3.99-5.03,7.14.27,14.31-.07,21.46.07,2.17.04,5.53-1.39,6.3,1.15.89,2.94,1.29,6.51-1.29,9.44-4.39,4.99-8.65,10.11-12.92,15.2-1.03,1.23-1.93,2.58-3.4,4.56v.02Z"/>
  <path class="cls-2" d="M220.16,50.46c0,5.31-.15,10.62.06,15.93.12,2.97-.63,4.1-3.86,3.97-8.74-.34-7.17.71-7.23-7.04-.08-9.46.2-18.92-.14-28.37-.21-5.96,3.9-3.8,6.73-4.25,3.45-.56,4.69.79,4.5,4.33-.27,5.13-.07,10.28-.07,15.43h.01Z"/>
  <path class="cls-2" d="M215.25,13.07c3.92.28,6.38,3.06,6.15,6.93-.21,3.44-3.53,6.31-7.12,6.16-3.84-.16-6.51-3.02-6.32-6.78.21-4.03,3.19-6.61,7.3-6.31h0Z"/>
  <path class="cls-3" d="M67.46,66.33c-1.1,2.22-3.15,3.16-4.76,4.57-1.74,1.53-3.35,1.33-4.75-.35-2.37-2.86-5.04-2.7-8.48-1.91-16.74,3.82-29.71-3.81-33.82-17.92-4.73-16.23,2.63-31.71,21.2-35.47,11.53-2.34,21.76,1.48,28.47,11.3,6.82,9.98,6.86,20.87-.21,30.83-3.38,4.76.56,6.35,2.36,8.96h-.01ZM45.1,58.37c.21-1.43-1.04-1.95-1.77-2.76-3.74-4.15-3.4-6.17,1.45-8.61,3.5-1.77,4.6,1.59,6.43,3.11,2.01,1.66,3.49,3.11,5.43-.12,4.43-7.39,1.26-18.53-6.67-22.89-8.18-4.5-18.53-1.11-22.46,7.16-1.75,3.67-1.43,7.12-.82,11.03,1.48,9.54,8.95,15.17,18.41,13.1v-.02Z"/>
  <path class="cls-1" d="M45.1,58.37c-9.46,2.07-16.93-3.56-18.41-13.1-.61-3.9-.93-7.36.82-11.03,3.93-8.27,14.28-11.65,22.46-7.16,7.93,4.36,11.1,15.5,6.67,22.89-1.94,3.24-3.42,1.78-5.43.12-1.83-1.51-2.93-4.87-6.43-3.11-4.85,2.44-5.19,4.47-1.45,8.61.74.81,1.98,1.33,1.77,2.76v.02Z"/>
</svg>